<?xml version="1.0" encoding="UTF-8" standalone="no"?><svg xmlns="http://www.w3.org/2000/svg" xmlns:xlink="http://www.w3.org/1999/xlink" fill="#000000" height="117.3" preserveAspectRatio="xMidYMid meet" version="1" viewBox="23.5 41.4 151.5 117.3" width="151.5" zoomAndPan="magnify"><g fill="#ffffff" id="change1_1"><path d="M 99.371094 115.507812 C 97.859375 113.261719 96.148438 111.21875 94.289062 109.320312 C 93.847656 108.871094 93.402344 108.429688 92.945312 107.992188 C 91.90625 107.003906 90.769531 106.347656 89.578125 105.4375 C 89.757812 106.765625 89.832031 108.058594 89.808594 109.320312 C 89.765625 111.464844 89.421875 113.523438 88.785156 115.507812 C 88.472656 116.496094 88.085938 117.464844 87.625 118.417969 C 87.421875 117.4375 87.207031 116.464844 86.980469 115.507812 C 86.480469 113.382812 85.917969 111.320312 85.289062 109.320312 C 80.230469 93.183594 71.019531 81.144531 56.222656 74.308594 C 56.8125 77.429688 56.878906 80.316406 56.566406 83.21875 C 56.222656 86.445312 55.527344 89.515625 54.515625 92.4375 C 53.601562 95.074219 52.425781 97.597656 51.015625 100.015625 C 49.453125 102.691406 47.792969 105.300781 46.453125 108.152344 C 45.382812 110.417969 44.695312 112.824219 44.363281 115.507812 C 44.304688 115.996094 44.257812 116.492188 44.222656 116.996094 C 43.882812 116.507812 43.574219 116.011719 43.304688 115.507812 C 41.753906 112.65625 41.242188 109.589844 41.464844 106.160156 C 41.28125 106.269531 41.097656 106.382812 40.917969 106.5 C 38.96875 107.75 37.261719 109.230469 35.664062 110.882812 C 30.765625 115.9375 27.074219 121.921875 25.582031 129.507812 C 23.519531 140.011719 27.015625 149.78125 34.828125 155.457031 C 36.59375 156.742188 40.167969 158.390625 40.546875 158.398438 C 37.644531 154.476562 35.671875 150.015625 34.941406 144.867188 C 34.035156 138.441406 34.5625 132.171875 36.480469 125.789062 C 36.917969 127.417969 36.953125 127.683594 37.128906 128.5 C 37.972656 132.507812 39.652344 136.035156 41.636719 139.386719 C 44.738281 144.621094 48.453125 149.203125 52.484375 153.449219 C 52.640625 153.613281 52.820312 153.753906 53.105469 154.007812 C 53.597656 151.195312 54.511719 148.726562 56.070312 146.648438 C 58.347656 143.621094 61.082031 141.214844 63.828125 138.816406 C 64.546875 138.1875 65.101562 137.300781 65.785156 136.601562 C 69.332031 132.972656 71.863281 128.675781 72.851562 123.144531 C 73.203125 121.175781 73.25 119.207031 73.527344 116.976562 C 74.289062 118.648438 74.722656 120.203125 75.117188 121.769531 C 77.46875 131.132812 76.429688 140.003906 72.363281 148.476562 C 70.671875 151.992188 68.429688 154.96875 66.136719 157.914062 C 67.410156 157.894531 81.550781 149.375 87.621094 142.121094 C 90.671875 138.476562 93.324219 134.464844 95.625 129.90625 C 96.988281 135.125 97.050781 140.207031 95.902344 145.289062 C 94.777344 150.269531 93.242188 155.078125 90.5625 158.636719 C 97.765625 156.1875 106.160156 147.4375 105.964844 135.082031 C 105.875 129.375 104.148438 124.226562 101.671875 119.398438 C 100.96875 118.03125 100.199219 116.738281 99.371094 115.507812"/><path d="M 173.347656 41.363281 L 42.574219 41.363281 C 41.660156 41.363281 40.917969 42.101562 40.917969 43.015625 L 40.917969 98.585938 L 45.695312 95.691406 C 46.214844 94.746094 46.683594 93.789062 47.109375 92.828125 L 47.109375 62.316406 C 47.664062 62.769531 48.269531 63.164062 48.917969 63.488281 C 49.101562 63.578125 49.289062 63.664062 49.476562 63.746094 C 50.644531 64.238281 51.921875 64.511719 53.269531 64.511719 C 58.648438 64.511719 63.007812 60.148438 63.007812 54.769531 C 63.007812 51.90625 61.773438 49.332031 59.804688 47.550781 L 156.113281 47.550781 C 154.144531 49.332031 152.910156 51.90625 152.910156 54.769531 C 152.910156 60.148438 157.273438 64.511719 162.652344 64.511719 C 164.988281 64.511719 167.132812 63.6875 168.8125 62.316406 L 168.8125 94.554688 C 167.132812 93.183594 164.988281 92.359375 162.652344 92.359375 C 157.273438 92.359375 152.910156 96.722656 152.910156 102.101562 C 152.910156 104.964844 154.144531 107.539062 156.113281 109.320312 L 103.238281 109.320312 C 104.773438 111.3125 106.109375 113.367188 107.265625 115.507812 L 173.347656 115.507812 C 174.261719 115.507812 175 114.769531 175 113.855469 L 175 43.015625 C 175 42.101562 174.261719 41.363281 173.347656 41.363281"/><path d="M 110.386719 81.757812 C 109.894531 81.390625 108.800781 80.917969 107.101562 80.351562 C 105.578125 79.851562 104.382812 79.355469 103.523438 78.867188 C 102.664062 78.378906 101.96875 77.699219 101.429688 76.816406 C 100.894531 75.9375 100.628906 74.910156 100.628906 73.738281 C 100.628906 72.203125 101.105469 70.828125 102.066406 69.601562 C 102.488281 69.054688 103.023438 68.601562 103.667969 68.246094 C 104.257812 67.917969 104.941406 67.671875 105.714844 67.503906 C 105.785156 67.484375 105.851562 67.472656 105.929688 67.457031 L 105.929688 64.609375 L 109.992188 64.609375 L 109.992188 67.445312 C 110.085938 67.460938 110.171875 67.480469 110.265625 67.5 C 112.855469 68.054688 114.558594 69.660156 115.378906 72.328125 L 111.558594 73.808594 C 111.484375 73.605469 111.40625 73.410156 111.324219 73.230469 C 110.695312 71.855469 109.347656 70.984375 107.871094 70.984375 C 107.871094 70.984375 107.652344 70.996094 107.382812 71.015625 C 107.117188 71.042969 106.808594 71.074219 106.628906 71.121094 C 106.175781 71.242188 105.808594 71.441406 105.53125 71.714844 C 105.042969 72.203125 104.792969 72.796875 104.792969 73.484375 C 104.792969 74.199219 105.042969 74.75 105.53125 75.113281 C 106.023438 75.480469 107.121094 75.953125 108.816406 76.519531 C 110.34375 77.019531 111.535156 77.515625 112.398438 78.003906 C 113.253906 78.488281 113.949219 79.171875 114.484375 80.050781 C 115.023438 80.933594 115.292969 81.960938 115.292969 83.132812 C 115.292969 84.664062 114.808594 86.042969 113.851562 87.269531 C 113.429688 87.816406 112.894531 88.269531 112.25 88.625 C 111.660156 88.953125 110.976562 89.199219 110.203125 89.367188 C 110.136719 89.386719 110.066406 89.398438 109.992188 89.414062 L 109.992188 92.261719 L 105.929688 92.261719 L 105.929688 89.425781 C 105.835938 89.40625 105.746094 89.390625 105.65625 89.371094 C 103.066406 88.816406 101.359375 87.210938 100.539062 84.539062 L 104.359375 83.0625 C 104.421875 83.226562 104.484375 83.386719 104.550781 83.535156 C 105.167969 84.953125 106.550781 85.882812 108.046875 85.886719 C 108.050781 85.886719 108.273438 85.871094 108.539062 85.855469 C 108.808594 85.828125 109.109375 85.796875 109.289062 85.75 C 109.742188 85.628906 110.113281 85.429688 110.386719 85.152344 C 110.875 84.664062 111.121094 84.074219 111.121094 83.386719 C 111.121094 82.671875 110.875 82.121094 110.386719 81.757812 Z M 107.960938 100.09375 C 119.921875 100.09375 129.617188 90.398438 129.617188 78.433594 C 129.617188 66.472656 119.921875 56.777344 107.960938 56.777344 C 95.996094 56.777344 86.300781 66.472656 86.300781 78.433594 C 86.300781 90.398438 95.996094 100.09375 107.960938 100.09375"/></g></svg>