<?xml version="1.0" encoding="UTF-8" standalone="no"?><svg xmlns="http://www.w3.org/2000/svg" xmlns:xlink="http://www.w3.org/1999/xlink" fill="#ffffff" height="32" preserveAspectRatio="xMidYMid meet" version="1" viewBox="5.8 8.0 36.5 32.0" width="36.5" zoomAndPan="magnify"><g id="change1_1"><path d="M36.81,18.309c-0.552,0-1,0.447-1,1V36c0,1.104-0.896,2-2,2h-24c-1.103,0-2-0.896-2-2V12c0-1.102,0.897-2,2-2h24 c0.779,0,1.493,0.459,1.817,1.168c0.229,0.502,0.824,0.721,1.326,0.492c0.502-0.23,0.723-0.824,0.493-1.326 C36.796,8.916,35.369,8,33.81,8h-24c-2.206,0-4,1.795-4,4v24c0,2.207,1.794,4,4,4h24c2.207,0,4-1.793,4-4V19.309 C37.81,18.756,37.362,18.309,36.81,18.309z" fill="inherit"/></g><g id="change1_2"><path d="M41.388,12.471c-0.002,0-0.005,0-0.008,0c-8.54,0.754-16.347,5.453-21.021,12.619l-5.189-5.994 c-0.905-1.045-2.629-1.172-3.674-0.264c-1.085,0.939-1.204,2.588-0.265,3.674l9.032,10.431c0.096,0.11,0.234,0.174,0.378,0.174 c0.02,0,0.038-0.002,0.058-0.004c0.163-0.021,0.308-0.117,0.385-0.264c4.478-8.485,11.812-15.212,20.651-18.939 c0.377-0.16,0.557-0.598,0.396-0.979C42.019,12.65,41.751,12.471,41.388,12.471z" fill="inherit"/></g></svg>