<?xml version="1.0" encoding="UTF-8" standalone="no"?><svg xmlns="http://www.w3.org/2000/svg" xmlns:xlink="http://www.w3.org/1999/xlink" fill="#ffffff" height="512.3" preserveAspectRatio="xMidYMid meet" version="1" viewBox="-0.6 -0.6 512.0 512.3" width="512" zoomAndPan="magnify"><g id="change1_1"><path d="M 237.898438 0.292969 C 173.699219 5.691406 119.296875 30.589844 74.796875 75.089844 C 33.097656 116.890625 9.597656 164.890625 1.296875 225.691406 C -0.601562 239.589844 -0.402344 274.390625 1.796875 289.191406 C 10.199219 347.589844 33.898438 395.390625 74.796875 436.292969 C 115.699219 477.191406 163.5 500.890625 221.898438 509.292969 C 238.398438 511.691406 272.398438 511.691406 288.898438 509.292969 C 347.296875 500.890625 395.097656 477.191406 436 436.292969 C 476.898438 395.390625 500.597656 347.589844 509 289.191406 C 511.199219 274.390625 511.398438 239.589844 509.5 225.691406 C 501.199219 164.890625 477.699219 116.890625 436 75.089844 C 395.796875 34.890625 348.296875 10.992188 292.199219 2.589844 C 279.296875 0.691406 248.796875 -0.609375 237.898438 0.292969 Z M 286.796875 51.191406 C 358.398438 62.292969 419.898438 110.992188 447 177.890625 C 453.097656 193.089844 457.597656 209.292969 460.097656 225.191406 C 462.5 240.292969 462.5 271.089844 460.097656 286.191406 C 456.296875 310.691406 447.097656 337.089844 435.398438 357.589844 C 429.296875 368.390625 414.097656 389.691406 412.699219 389.691406 C 412.199219 389.691406 395.796875 373.589844 376 353.792969 L 340.199219 317.992188 L 341.898438 314.589844 C 344.199219 309.992188 357.796875 288.691406 358.398438 288.691406 C 359.199219 288.691406 367.699219 304.492188 372 314.089844 L 376 323.191406 L 399.199219 323.492188 C 412 323.589844 422.398438 323.492188 422.398438 323.191406 C 422.398438 322.890625 414 307.992188 403.796875 290.089844 C 387.898438 262.292969 385.296875 257.191406 386.097656 255.390625 C 386.699219 254.191406 394.597656 240.890625 403.796875 225.890625 C 412.898438 210.890625 420.398438 198.390625 420.398438 198.191406 C 420.398438 197.890625 411.296875 197.691406 400.199219 197.691406 L 379.898438 197.691406 L 378 202.492188 C 376.296875 206.890625 365.597656 226.992188 362.898438 230.992188 C 361.699219 232.691406 361 231.792969 356.097656 222.992188 C 353.097656 217.589844 349.097656 209.691406 347.296875 205.390625 L 344 197.691406 L 297.296875 197.691406 L 298.5 199.890625 C 299.199219 201.191406 307.796875 215.890625 317.597656 232.589844 L 335.5 262.992188 L 329.296875 273.089844 C 325.898438 278.691406 321.699219 285.589844 320 288.390625 C 318.296875 291.292969 316.699219 293.691406 316.398438 293.691406 C 316.097656 293.691406 307.898438 285.691406 298.199219 275.890625 L 280.398438 258.191406 L 272.199219 228.191406 L 263.898438 198.191406 L 241.898438 197.890625 L 219.898438 197.691406 L 170.398438 148.089844 L 120.898438 98.589844 L 124.296875 95.691406 C 151 73.089844 193 54.792969 227.398438 50.792969 C 232.597656 50.191406 238.296875 49.492188 239.898438 49.292969 C 246 48.390625 277.199219 49.691406 286.796875 51.191406 Z M 136.898438 159.691406 L 174.898438 197.691406 L 90.597656 197.691406 L 90 202.390625 C 88.796875 212.992188 88.199219 224.589844 88.898438 226.691406 C 89.597656 228.992188 89.699219 228.992188 103.898438 228.492188 L 118.199219 227.890625 L 118.699219 233.089844 C 119.199219 238.191406 118.796875 317.390625 118.199219 321.191406 C 117.898438 323.089844 118.5 323.191406 137.097656 323.492188 L 156.296875 323.691406 L 156 285.992188 C 155.796875 265.191406 155.796875 243.589844 156.097656 237.992188 L 156.5 227.890625 L 170.296875 228.390625 L 184.097656 228.992188 L 185 218.792969 L 185.898438 208.589844 L 196.5 219.390625 L 207.097656 230.191406 L 193.296875 275.191406 C 185.699219 299.890625 179.5 320.992188 179.5 321.992188 C 179.398438 323.589844 180.699219 323.691406 198.199219 323.492188 L 216.898438 323.191406 L 218.5 313.390625 C 219.398438 307.992188 220.5 303.292969 220.898438 302.890625 C 221.199219 302.492188 229 302.191406 238.199219 302.191406 L 254.796875 302.191406 L 255.5 305.691406 C 255.898438 307.589844 256.699219 312.492188 257.398438 316.390625 L 258.597656 323.691406 L 278 323.691406 C 294.898438 323.691406 297.398438 323.492188 297.398438 322.089844 C 297.398438 321.292969 297.898438 320.890625 298.398438 321.191406 C 299 321.589844 299.199219 322.292969 298.898438 322.792969 C 298.5 323.292969 298.898438 323.691406 299.597656 323.691406 C 300.296875 323.691406 320.898438 343.792969 345.398438 368.292969 L 389.898438 412.792969 L 386.5 415.691406 C 360.398438 437.890625 322.597656 454.691406 285.898438 460.390625 C 270.796875 462.792969 240 462.792969 224.898438 460.390625 C 180.597656 453.492188 140.796875 433.292969 109.296875 401.792969 C 77.796875 370.292969 57.597656 330.492188 50.699219 286.191406 C 48.296875 271.089844 48.296875 240.292969 50.699219 225.191406 C 54.5 200.691406 63.699219 174.292969 75.398438 153.792969 C 81.5 142.992188 96.699219 121.691406 98.097656 121.691406 C 98.597656 121.691406 116 138.792969 136.898438 159.691406 Z M 248.5 271.890625 C 249.398438 273.589844 248.597656 273.691406 238.5 273.691406 L 227.5 273.691406 L 228.898438 268.890625 C 229.597656 266.292969 230.796875 262.191406 231.398438 259.792969 L 232.597656 255.390625 L 240 262.792969 C 244.199219 266.890625 248 270.992188 248.5 271.890625 Z M 248.5 271.890625"/></g></svg>